HIERARCHY
ROOT Hips
{
  OFFSET 126.96 91.9987 35.2002
  CHANNELS 6 Xposition Yposition Zposition Zrotation Xrotation Yrotation
  JOINT RightUpLeg
  {
    OFFSET -9.21262 -1.62705 0.0892923
    CHANNELS 3 Zrotation Xrotation Yrotation
    JOINT RightLeg
    {
      OFFSET 0.0960154 -41.8606 0.153467
      CHANNELS 3 Zrotation Xrotation Yrotation
      JOINT RightFoot
      {
        OFFSET 1.33859 -39.7491 3.70458
        CHANNELS 3 Zrotation Xrotation Yrotation
        End Site
        {
          OFFSET 0 -7.69 17.5
        }
      }
    }
  }
  JOINT LeftUpLeg
  {
    OFFSET 9.28909 -1.62806 0.0108209
    CHANNELS 3 Zrotation Xrotation Yrotation
    JOINT LeftLeg
    {
      OFFSET 0.0929201 -41.8886 0.0218006
      CHANNELS 3 Zrotation Xrotation Yrotation
      JOINT LeftFoot
      {
        OFFSET -1.57781 -41.3397 -3.31563
        CHANNELS 3 Zrotation Xrotation Yrotation
        End Site
        {
          OFFSET 0 -7.69 17.5
        }
      }
    }
  }
  JOINT Spine
  {
    OFFSET 0.0128959 14.3037 0.0259321
    CHANNELS 3 Zrotation Xrotation Yrotation
    JOINT Spine1
    {
      OFFSET 0.0143034 9.71252 0.015398
      CHANNELS 3 Zrotation Xrotation Yrotation
      JOINT Spine2
      {
        OFFSET 0.0468817 10.117 -0.0314137
        CHANNELS 3 Zrotation Xrotation Yrotation
        JOINT Spine3
        {
          OFFSET 0.0102655 9.71178 0.00221616
          CHANNELS 3 Zrotation Xrotation Yrotation
          JOINT Neck
          {
            OFFSET -0.0402596 10.3794 0.0231037
            CHANNELS 3 Zrotation Xrotation Yrotation
            JOINT Head
            {
              OFFSET -0.03453 9.49168 0.0708427
              CHANNELS 3 Zrotation Xrotation Yrotation
              End Site
              {
                OFFSET 0 15.95 0
              }
            }
          }
          JOINT RightShoulder
          {
            OFFSET -3.17991 6.93495 0.0309862
            CHANNELS 3 Zrotation Xrotation Yrotation
            JOINT RightArm
            {
              OFFSET -12.8253 0.0342167 0.035901
              CHANNELS 3 Zrotation Xrotation Yrotation
              JOINT RightForeArm
              {
                OFFSET -26.4423 -0.000685918 0.00421057
                CHANNELS 3 Zrotation Xrotation Yrotation
                JOINT RightHand
                {
                  OFFSET -25.9842 -0.0662606 -0.0268032
                  CHANNELS 3 Zrotation Xrotation Yrotation
                  JOINT RightHandThumb1
                  {
                    OFFSET -2.48905 0.190105 3.12053
                    CHANNELS 3 Zrotation Xrotation Yrotation
                    JOINT RightHandThumb2
                    {
                      OFFSET -3.68274 0 0
                      CHANNELS 3 Zrotation Xrotation Yrotation
                      JOINT RightHandThumb3
                      {
                        OFFSET -2.55832 0 0
                        CHANNELS 3 Zrotation Xrotation Yrotation
                        End Site
                        {
                          OFFSET -2.194 0 0
                        }
                      }
                    }
                  }
                  JOINT RightInHandIndex
                  {
                    OFFSET -3.22368 0.508421 1.97842
                    CHANNELS 3 Zrotation Xrotation Yrotation
                    JOINT RightHandIndex1
                    {
                      OFFSET -5.21684 -0.091368 0.999158
                      CHANNELS 3 Zrotation Xrotation Yrotation
                      JOINT RightHandIndex2
                      {
                        OFFSET -3.61937 0 0
                        CHANNELS 3 Zrotation Xrotation Yrotation
                        JOINT RightHandIndex3
                        {
                          OFFSET -2.0521 0 0
                          CHANNELS 3 Zrotation Xrotation Yrotation
                          End Site
                          {
                            OFFSET -1.805 0 0
                          }
                        }
                      }
                    }
                  }
                  JOINT RightInHandMiddle
                  {
                    OFFSET -3.38211 0.517263 0.756737
                    CHANNELS 3 Zrotation Xrotation Yrotation
                    JOINT RightHandMiddle1
                    {
                      OFFSET -5.17411 -0.084 0.313895
                      CHANNELS 3 Zrotation Xrotation Yrotation
                      JOINT RightHandMiddle2
                      {
                        OFFSET -3.94947 0 0
                        CHANNELS 3 Zrotation Xrotation Yrotation
                        JOINT RightHandMiddle3
                        {
                          OFFSET -2.47579 0 0
                          CHANNELS 3 Zrotation Xrotation Yrotation
                          End Site
                          {
                            OFFSET -1.975 0 0
                          }
                        }
                      }
                    }
                  }
                  JOINT RightInHandRing
                  {
                    OFFSET -3.36516 0.537895 -0.128947
                    CHANNELS 3 Zrotation Xrotation Yrotation
                    JOINT RightHandRing1
                    {
                      OFFSET -4.63474 -0.022105 -0.478947
                      CHANNELS 3 Zrotation Xrotation Yrotation
                      JOINT RightHandRing2
                      {
                        OFFSET -3.44238 0 0
                        CHANNELS 3 Zrotation Xrotation Yrotation
                        JOINT RightHandRing3
                        {
                          OFFSET -2.3881 0 0
                          CHANNELS 3 Zrotation Xrotation Yrotation
                          End Site
                          {
                            OFFSET -1.857 0 0
                          }
                        }
                      }
                    }
                  }
                  JOINT RightInHandPinky
                  {
                    OFFSET -3.16105 0.469368 -1.20179
                    CHANNELS 3 Zrotation Xrotation Yrotation
                    JOINT RightHandPinky1
                    {
                      OFFSET -4.14105 -0.022105 -1.09053
                      CHANNELS 3 Zrotation Xrotation Yrotation
                      JOINT RightHandPinky2
                      {
                        OFFSET -2.75653 0 0
                        CHANNELS 3 Zrotation Xrotation Yrotation
                        JOINT RightHandPinky3
                        {
                          OFFSET -1.74189 0 0
                          CHANNELS 3 Zrotation Xrotation Yrotation
                          End Site
                          {
                            OFFSET -1.645 0 0
                          }
                        }
                      }
                    }
                  }
                }
              }
            }
          }
          JOINT LeftShoulder
          {
            OFFSET 3.21113 6.90952 -0.0469957
            CHANNELS 3 Zrotation Xrotation Yrotation
            JOINT LeftArm
            {
              OFFSET 12.7919 -0.0331125 -0.0859637
              CHANNELS 3 Zrotation Xrotation Yrotation
              JOINT LeftForeArm
              {
                OFFSET 26.4755 -0.0026531 -0.0242133
                CHANNELS 3 Zrotation Xrotation Yrotation
                JOINT LeftHand
                {
                  OFFSET 25.9936 -0.03295 -0.105102
                  CHANNELS 3 Zrotation Xrotation Yrotation
                  JOINT LeftHandThumb1
                  {
                    OFFSET 2.48905 0.190105 3.12053
                    CHANNELS 3 Zrotation Xrotation Yrotation
                    JOINT LeftHandThumb2
                    {
                      OFFSET 3.68274 0 0
                      CHANNELS 3 Zrotation Xrotation Yrotation
                      JOINT LeftHandThumb3
                      {
                        OFFSET 2.55832 0 0
                        CHANNELS 3 Zrotation Xrotation Yrotation
                        End Site
                        {
                          OFFSET 2.194 0 0
                        }
                      }
                    }
                  }
                  JOINT LeftInHandIndex
                  {
                    OFFSET 3.22368 0.508421 1.97842
                    CHANNELS 3 Zrotation Xrotation Yrotation
                    JOINT LeftHandIndex1
                    {
                      OFFSET 5.21684 -0.091368 0.999158
                      CHANNELS 3 Zrotation Xrotation Yrotation
                      JOINT LeftHandIndex2
                      {
                        OFFSET 3.61937 0 0
                        CHANNELS 3 Zrotation Xrotation Yrotation
                        JOINT LeftHandIndex3
                        {
                          OFFSET 2.0521 0 0
                          CHANNELS 3 Zrotation Xrotation Yrotation
                          End Site
                          {
                            OFFSET 1.805 0 0
                          }
                        }
                      }
                    }
                  }
                  JOINT LeftInHandMiddle
                  {
                    OFFSET 3.38211 0.517263 0.756737
                    CHANNELS 3 Zrotation Xrotation Yrotation
                    JOINT LeftHandMiddle1
                    {
                      OFFSET 5.17411 -0.084 0.313895
                      CHANNELS 3 Zrotation Xrotation Yrotation
                      JOINT LeftHandMiddle2
                      {
                        OFFSET 3.94947 0 0
                        CHANNELS 3 Zrotation Xrotation Yrotation
                        JOINT LeftHandMiddle3
                        {
                          OFFSET 2.47579 0 0
                          CHANNELS 3 Zrotation Xrotation Yrotation
                          End Site
                          {
                            OFFSET 1.975 0 0
                          }
                        }
                      }
                    }
                  }
                  JOINT LeftInHandRing
                  {
                    OFFSET 3.36516 0.537895 -0.128947
                    CHANNELS 3 Zrotation Xrotation Yrotation
                    JOINT LeftHandRing1
                    {
                      OFFSET 4.63474 -0.022105 -0.478947
                      CHANNELS 3 Zrotation Xrotation Yrotation
                      JOINT LeftHandRing2
                      {
                        OFFSET 3.44238 0 0
                        CHANNELS 3 Zrotation Xrotation Yrotation
                        JOINT LeftHandRing3
                        {
                          OFFSET 2.3881 0 0
                          CHANNELS 3 Zrotation Xrotation Yrotation
                          End Site
                          {
                            OFFSET 1.857 0 0
                          }
                        }
                      }
                    }
                  }
                  JOINT LeftInHandPinky
                  {
                    OFFSET 3.16105 0.469368 -1.20179
                    CHANNELS 3 Zrotation Xrotation Yrotation
                    JOINT LeftHandPinky1
                    {
                      OFFSET 4.14105 -0.022105 -1.09053
                      CHANNELS 3 Zrotation Xrotation Yrotation
                      JOINT LeftHandPinky2
                      {
                        OFFSET 2.75653 0 0
                        CHANNELS 3 Zrotation Xrotation Yrotation
                        JOINT LeftHandPinky3
                        {
                          OFFSET 1.74189 0 0
                          CHANNELS 3 Zrotation Xrotation Yrotation
                          End Site
                          {
                            OFFSET 1.645 0 0
                          }
                        }
                      }
                    }
                  }
                }
              }
            }
          }
        }
      }
    }
  }
}
MOTION
Frames: 3
Frame Time: 0.00833333
4.500115749578799296e+02 6.024300750885809054e-03 7.198169989714438277e-02 6.319409746964205210e-02 -8.209610826666406680e-02 3.343341596605513971e-02 1.220485256759052811e-01 -1.826769559815823174e-01 -1.467910777348398893e-02 -1.006073625838185999e-02 2.185642267302112529e-02 4.094419934002898470e-02 4.975566472849773242e-02 -3.946630755579309813e-02 4.407663109197534207e-02 1.093895261792688506e-01 -1.228561768188951991e-01 -3.294127699165314005e-01 -6.247985046575679074e-02 2.546154746499065813e-01 1.875952071479511929e-01 -7.934496364347930208e-02 -1.890736516773915410e-01 2.432569009388510506e-01 1.067825168860913193e-01 1.719881372620289325e-02 -1.507130045948008035e-01 2.202546757660011484e-02 2.727707494307556393e-02 -3.884770496899739994e-02 4.025842831363915519e-02 -3.057185721196021416e-02 -7.117324836143509859e-02 -1.196113689714171056e-02 -3.722009827386262015e-03 1.307994034908363697e-02 -7.377130144630417163e-02 6.666670555832994449e-02 -3.694462769577903094e-01 -2.454204298815737262e-01 -1.067585795614149902e-01 4.682107727423341359e-01 -4.086712784634259910e-01 -1.096201534651884135e-01 3.980229828163260319e-01 1.341144653610985449e+00 -1.214225312656391997e+00 -1.339930917775525865e+00 -1.068525865067056602e+00 2.149462397255668122e+00 1.678936568869591994e+01 -2.090431772654205433e-01 2.216242509908809000e-01 9.164360225176639840e-01 0.000000000000000000e+00 0.000000000000000000e+00 0.000000000000000000e+00 -1.942902288594493288e-15 9.711113803873668587e-16 0.000000000000000000e+00 1.216876947049452272e-15 1.243923660193233094e-15 0.000000000000000000e+00 4.518304701825362030e-16 -1.607947779647236621e-15 1.817675900792036794e-15 0.000000000000000000e+00 0.000000000000000000e+00 0.000000000000000000e+00 0.000000000000000000e+00 6.383604929110118094e-16 5.416370812214339607e-16 0.000000000000000000e+00 -3.757318489126624837e-16 3.384421269439617320e-15 4.518304701825362030e-16 -1.607947779647236621e-15 1.817675900792036794e-15 0.000000000000000000e+00 -8.417530397803013169e-16 -3.974692354953242907e-15 0.000000000000000000e+00 -2.493321001676865526e-16 -1.975288161239306529e-15 0.000000000000000000e+00 8.986302053268332899e-16 5.905486607525125871e-15 4.518304701825362030e-16 -1.607947779647236621e-15 1.817675900792036794e-15 0.000000000000000000e+00 0.000000000000000000e+00 0.000000000000000000e+00 0.000000000000000000e+00 2.246836738239662744e-16 -3.690758307640974130e-15 0.000000000000000000e+00 -4.702004528295062591e-16 3.370868835324774921e-15 4.518304701825362030e-16 -1.607947779647236621e-15 1.817675900792036794e-15 0.000000000000000000e+00 0.000000000000000000e+00 0.000000000000000000e+00 0.000000000000000000e+00 -2.052242055819193020e-15 -1.041067168168216118e-14 0.000000000000000000e+00 2.108103440696417304e-15 4.639119535862465986e-15 6.256988964743358250e-02 5.097704547681247006e-02 4.026192889644700235e-01 2.106872709211476402e-01 1.375079148929745643e-01 -2.523430067162641954e-01 -4.102467132732344979e+00 1.639978051708551376e+00 -5.198114835297528380e+00 -1.026079535931862186e+00 -4.270045085622543590e-01 -1.063139435672288302e+00 0.000000000000000000e+00 0.000000000000000000e+00 0.000000000000000000e+00 -2.192244811140583339e-16 -3.255794709352345924e-16 0.000000000000000000e+00 1.153814682403029128e-15 6.986419105279452348e-17 0.000000000000000000e+00 -6.443196153905519745e-16 3.056588974699067533e-16 -2.212090233296607200e-16 0.000000000000000000e+00 0.000000000000000000e+00 0.000000000000000000e+00 0.000000000000000000e+00 -8.098830404132508030e-16 -6.545427812587014062e-16 0.000000000000000000e+00 -4.899590870134571630e-16 -6.167897486367897391e-16 -6.443196153905519745e-16 3.056588974699067533e-16 -2.212090233296607200e-16 0.000000000000000000e+00 -5.454425325201598155e-16 -5.190174768362235042e-16 0.000000000000000000e+00 7.793209262241083438e-16 3.790644577533853537e-16 0.000000000000000000e+00 1.233290214222082104e-15 -1.012483703560069470e-15 -6.443196153905519745e-16 3.056588974699067533e-16 -2.212090233296607200e-16 0.000000000000000000e+00 0.000000000000000000e+00 0.000000000000000000e+00 0.000000000000000000e+00 9.921898367975924181e-16 9.098349776368787327e-16 0.000000000000000000e+00 -1.607505765137436468e-15 4.989095814250582257e-16 -6.443196153905519745e-16 3.056588974699067533e-16 -2.212090233296607200e-16 0.000000000000000000e+00 0.000000000000000000e+00 0.000000000000000000e+00 0.000000000000000000e+00 5.975067291606080842e-17 -1.754700815225564074e-15 0.000000000000000000e+00 6.369537956688995504e-16 -8.818453096092680016e-16
4.500155146735178846e+02 7.691228523794560283e-03 7.242135234339258654e-02 3.085531467769133881e-02 -1.043016271627930647e-01 -7.982227818232234817e-02 2.038261378153298498e-01 -1.472590367597967909e-01 1.112614604562304210e-01 -3.847470448743973981e-02 4.122818441345053875e-02 1.144745384570307750e-01 5.149097413608521440e-02 -6.825952454044376116e-02 2.516429058733726104e-02 1.431304954300659238e-01 -7.329685833455516775e-02 -1.555350919434459467e-01 -4.350746133814007571e-02 2.123151398286756419e-01 1.744609210140989075e-01 -5.978018105544202765e-02 -1.331519766156321338e-01 2.129753506917928252e-01 7.402180552340449637e-02 1.822350493716770950e-02 -7.127517751355910702e-02 1.544852744812802263e-02 2.039931479146507229e-02 -1.978758635343506531e-02 2.939238865898024730e-02 -3.208547575194508478e-02 -3.967567128109499019e-02 -1.291739851091641689e-02 -5.288928658788509887e-03 1.263500112448331936e-02 -4.924414006233442109e-02 5.223044744607002049e-02 -4.358918890459428375e-01 -2.671383596900556157e-01 -1.375328213858350856e-01 5.272914868879483574e-01 -3.859267329861943985e-01 -4.405177844215363986e-02 7.757522232613431878e-01 1.503264828614200743e+00 -1.781390458724373627e+00 -1.442391686164223641e+00 -1.110035778467282519e+00 2.433499322015350241e+00 1.072302859498788763e+01 -3.292789234938496290e-01 3.457262918493029247e-01 9.590298210001686474e-01 0.000000000000000000e+00 0.000000000000000000e+00 0.000000000000000000e+00 -1.721587789957711178e-15 1.095355863699153250e-15 0.000000000000000000e+00 9.273814068307700849e-16 9.671741041605842991e-16 0.000000000000000000e+00 -3.197502641675895559e-16 -1.031086337245372489e-15 1.868553032794711934e-15 0.000000000000000000e+00 0.000000000000000000e+00 0.000000000000000000e+00 0.000000000000000000e+00 5.909902825997639977e-16 1.161267727513193944e-15 0.000000000000000000e+00 -8.183581370364894808e-16 3.219595969868442486e-15 -3.197502641675895559e-16 -1.031086337245372489e-15 1.868553032794711934e-15 0.000000000000000000e+00 -9.352103389700852933e-16 -2.197955369761873233e-15 0.000000000000000000e+00 1.036102468464405988e-16 -1.348970889327332927e-15 0.000000000000000000e+00 8.125875449619386493e-16 5.663841929639621317e-15 -3.197502641675895559e-16 -1.031086337245372489e-15 1.868553032794711934e-15 0.000000000000000000e+00 0.000000000000000000e+00 0.000000000000000000e+00 0.000000000000000000e+00 1.656311075168974392e-16 -2.698970049075558503e-15 0.000000000000000000e+00 -6.168974336791951922e-16 3.415136635473709325e-15 -3.197502641675895559e-16 -1.031086337245372489e-15 1.868553032794711934e-15 0.000000000000000000e+00 0.000000000000000000e+00 0.000000000000000000e+00 0.000000000000000000e+00 -1.814791103635696076e-15 -7.978952610314474999e-15 0.000000000000000000e+00 2.284703789448906443e-15 5.210443366135800061e-15 3.110062662392826249e-02 5.628647817266997644e-02 3.732219945507363468e-01 2.323418491227541571e-01 1.196987204768739377e-01 -2.444972884663104418e-01 -3.552981061765283943e+00 1.666208256855875369e+00 -4.379034933536669172e+00 -1.235994828581187921e+00 -1.436090379292234154e-01 -1.275847929610245846e+00 0.000000000000000000e+00 0.000000000000000000e+00 0.000000000000000000e+00 -1.404097932143291649e-16 -1.859922504365513898e-16 0.000000000000000000e+00 9.581066261362213280e-16 3.137410937297554097e-16 0.000000000000000000e+00 -4.212909301046950245e-16 9.325809755261509527e-17 -3.922936246080368564e-16 0.000000000000000000e+00 0.000000000000000000e+00 0.000000000000000000e+00 0.000000000000000000e+00 -5.219570894098920443e-16 -9.852685314734791691e-16 0.000000000000000000e+00 4.889468729655034881e-18 -1.060789561893837610e-15 -4.212909301046950245e-16 9.325809755261509527e-17 -3.922936246080368564e-16 0.000000000000000000e+00 -5.097742362958627213e-16 -6.849676767905418789e-16 0.000000000000000000e+00 9.526923794753823241e-16 2.107707168657556007e-16 0.000000000000000000e+00 1.119689532246996079e-15 -1.454044392386954511e-15 -4.212909301046950245e-16 9.325809755261509527e-17 -3.922936246080368564e-16 0.000000000000000000e+00 0.000000000000000000e+00 0.000000000000000000e+00 0.000000000000000000e+00 7.071581780079615095e-16 2.383445979347051092e-16 0.000000000000000000e+00 -1.076832844122217182e-15 1.625279826160878524e-16 -4.212909301046950245e-16 9.325809755261509527e-17 -3.922936246080368564e-16 0.000000000000000000e+00 0.000000000000000000e+00 0.000000000000000000e+00 0.000000000000000000e+00 1.697046659848322208e-16 -1.558008701874591158e-15 0.000000000000000000e+00 7.653440106115970517e-16 -9.302816219954150869e-16
4.500192103162161743e+02 9.229082976273702069e-03 7.137746595061260357e-02 -3.167416570839753226e-03 -1.246500086145032743e-01 -1.948342549631828791e-01 2.824644680547056530e-01 -1.080230605672445610e-01 2.375518056810976553e-01 -6.568021017857313126e-02 5.977457815981169348e-02 1.850740053829391107e-01 5.225445055911737829e-02 -9.562664791845175427e-02 6.816586549027630997e-03 1.743077594195290014e-01 -2.026464243476602811e-02 2.457776581957792084e-02 -2.409981737626070916e-02 1.647254083014553505e-01 1.587615957576945236e-01 -3.862022410360096969e-02 -7.394554798649435878e-02 1.783534169007449655e-01 3.916611984520781270e-02 1.883781706232382294e-02 1.096753914233258506e-02 8.441351178050426549e-03 1.308361733983243007e-02 2.248671694429185859e-05 1.774785205927941270e-02 -3.322182133871608850e-02 -6.779411956421798474e-03 -1.367113253504056644e-02 -6.770840129294500645e-03 1.190821173010586133e-02 -2.341456505666544841e-02 3.678580996624426086e-02 -4.952145485805156122e-01 -2.846822593867901485e-01 -1.660894214588013729e-01 5.770282003485103228e-01 -3.558480633016008476e-01 2.474247000788570849e-02 1.148706822841341957e+00 1.634584222736741976e+00 -2.326551065657267880e+00 -1.515462567349117995e+00 -1.132041067009372126e+00 2.676491979813451216e+00 4.382299367685796199e+00 -4.438136675618158389e-01 4.630627801268564769e-01 9.770152464966170847e-01 0.000000000000000000e+00 0.000000000000000000e+00 0.000000000000000000e+00 -1.472896815163249157e-15 1.206865148630006872e-15 0.000000000000000000e+00 6.225799535337584937e-16 6.744844177725270473e-16 0.000000000000000000e+00 -1.090453037701859492e-15 -4.327462553093377179e-16 1.894361841099214903e-15 0.000000000000000000e+00 0.000000000000000000e+00 0.000000000000000000e+00 0.000000000000000000e+00 5.271370517449518039e-16 1.748356118918787030e-15 0.000000000000000000e+00 -1.253609336422339871e-15 2.993874415590020495e-15 -1.090453037701859492e-15 -4.327462553093377179e-16 1.894361841099214903e-15 0.000000000000000000e+00 -1.013623155839329381e-15 -3.819985301459841470e-16 0.000000000000000000e+00 4.538063612366483681e-16 -7.132788478547645901e-16 0.000000000000000000e+00 7.170670509272862460e-16 5.325999454394672579e-15 -1.090453037701859492e-15 -4.327462553093377179e-16 1.894361841099214903e-15 0.000000000000000000e+00 0.000000000000000000e+00 0.000000000000000000e+00 0.000000000000000000e+00 9.254892379878565228e-17 -1.682851718173875561e-15 0.000000000000000000e+00 -7.531850443987677110e-16 3.408408527085640130e-15 -1.090453037701859492e-15 -4.327462553093377179e-16 1.894361841099214903e-15 0.000000000000000000e+00 0.000000000000000000e+00 0.000000000000000000e+00 0.000000000000000000e+00 -1.556916140179626359e-15 -5.435776542694981545e-15 0.000000000000000000e+00 2.417775858582990031e-15 5.692770323496681527e-15 -1.596773538762802716e-03 6.047644094011590810e-02 3.378499835159143871e-01 2.477982757961084692e-01 1.000574461778095392e-01 -2.290719685995269150e-01 -2.952199312912354490e+00 1.659951055641879947e+00 -3.486452461975352080e+00 -1.423942121187316445e+00 1.472118003814988640e-01 -1.462776599996679971e+00 0.000000000000000000e+00 0.000000000000000000e+00 0.000000000000000000e+00 -5.984886712406622347e-17 -4.238060892952170406e-17 0.000000000000000000e+00 7.374724302362348376e-16 5.564371444253102421e-16 0.000000000000000000e+00 -1.882217778609228758e-16 -1.210998704725316850e-16 -5.548145473027044147e-16 0.000000000000000000e+00 0.000000000000000000e+00 0.000000000000000000e+00 0.000000000000000000e+00 -2.203946235987107750e-16 -1.307256236820956375e-15 0.000000000000000000e+00 5.053600616646527841e-16 -1.488886356946735053e-15 -1.882217778609228758e-16 -1.210998704725316850e-16 -5.548145473027044147e-16 0.000000000000000000e+00 -4.660411966029743895e-16 -8.380713821702243663e-16 0.000000000000000000e+00 1.112568934214206626e-15 4.496155342636996026e-17 0.000000000000000000e+00 9.870510248244369824e-16 -1.876007755245275293e-15 -1.882217778609228758e-16 -1.210998704725316850e-16 -5.548145473027044147e-16 0.000000000000000000e+00 0.000000000000000000e+00 0.000000000000000000e+00 0.000000000000000000e+00 4.093454217024796418e-16 -4.424400341577598755e-16 0.000000000000000000e+00 -5.291918831204223216e-16 -1.812906428997046446e-16 -1.882217778609228758e-16 -1.210998704725316850e-16 -5.548145473027044147e-16 0.000000000000000000e+00 0.000000000000000000e+00 0.000000000000000000e+00 0.000000000000000000e+00 2.760724658488443277e-16 -1.336406737125681312e-15 0.000000000000000000e+00 8.753652492438054603e-16 -9.649796748261944311e-16
